<?xml version="1.0" encoding="utf-8"?>
<!-- Generator: Adobe Illustrator 24.1.2, SVG Export Plug-In . SVG Version: 6.00 Build 0)  -->
<svg version="1.1" id="Layer_1" xmlns="http://www.w3.org/2000/svg" xmlns:xlink="http://www.w3.org/1999/xlink" x="0px" y="0px"
	 viewBox="0 0 332.9 686.6" style="enable-background:new 0 0 332.9 686.6;" xml:space="preserve">
<style type="text/css">
	.st0{fill:none;}
</style>
<g>
	<polygon class="st0" points="216.3,361.9 216.3,373 204,373 204,380.7 229.3,380.7 229.3,361.9 	"/>
	<path class="st0" d="M180.3,373h-0.9V336h16.7v-7.3h-18.8v-78.4c0-2-0.1-3.9-0.3-5.7c-0.7,0-1.4-0.1-2.2-0.1
		c-5.9,0-10.5,1.5-14,4.4l-0.3-20.9c0-1.1,0-2.2-0.1-3.2c-1.4-0.2-2.9-0.3-4.5-0.3c-1.2,0-2.2,0.1-3.3,0.2c0,1.1,0.1,2.3,0.1,3.5
		l0.7,46v31.6h-20.6v7.7h18.8v35.3h-17v7.3h18.8v57c0,2,0.1,3.9,0.3,5.7c0.7,0,1.4,0.1,2.2,0.1c6.2,0,11-1.6,14.5-4.9v24.6
		c1.4,0.2,2.8,0.3,4.3,0.3c1.2,0,2.3-0.1,3.4-0.2v-57.9h20V373H180.3z"/>
	<path class="st0" d="M170.5,444.4v10.7c-4.5,0.7-9.4,1.1-14.5,1.1c-9.6,0-18.2-1.3-25.7-3.9c0.8,1,1.5,1.9,2.4,2.8
		c9.6,10.3,23.4,15.3,42.1,15.3c1.2,0,2.3,0,3.4-0.1v-25.8c-1.1,0.1-2.3,0.2-3.4,0.2C173.5,444.6,172,444.6,170.5,444.4z"/>
	<path class="st0" d="M147.7,361.9h-13V393c0,13.5,4.4,21.7,13.2,24.6c-0.1-1.4-0.2-3-0.2-4.6V361.9z"/>
	<path class="st0" d="M146.6,120.5v-16.1c0-18.7-4.3-32.6-12.9-41.3c-0.9-0.9-1.9-1.8-2.9-2.6c1.9,6.9,2.8,14.9,2.8,23.9v16.1
		c0,23.7-6.8,39.8-20.5,48.4c-1,1.9-2.2,3.5-3.5,5c6.6,2.5,11.7,6.6,15.4,12.2C139.5,159.3,146.6,144.4,146.6,120.5z"/>
	<path class="st0" d="M71.7,81.7v54.5c6.3-0.6,11.2-2.6,14.6-6.2c4.1-4.2,6.2-11.3,6.2-21.3V88.6c0-2.5-0.1-4.7-0.3-6.8
		c-0.6,0-1.2-0.1-1.8-0.1H71.7z"/>
	<path class="st0" d="M65.9,300.1V193.8V188h5.8h14.2c1.7,0,3.3,0.1,4.8,0.2c-0.9-3-2.1-5.5-3.7-7.3c-3.9-4.7-10.5-7.1-20-7.1H52.9
		v112.1H36.4v14.2H65.9z"/>
	<polygon class="st0" points="145.9,319.2 132.9,319.2 132.9,328.7 120.1,328.7 120.1,336 134.7,336 134.7,342.9 145.9,342.9 	"/>
	<path class="st0" d="M302.3,577.6c0,21.2-5.1,37.2-15.3,48.2c-10.2,11-25.5,16.4-46,16.4h-38.2v14.2h57c18.7,0,32.7-4.9,41.7-14.6
		c9.1-9.8,13.8-24.7,13.8-44.2V465.4c0-19.6-4.6-34.4-13.8-44.2c-0.9-0.9-1.8-1.8-2.8-2.7c2.3,7.8,3.5,16.7,3.5,26.9V577.6z"/>
	<path class="st0" d="M216.3,336v6.9h15.1v-70c0-19.3-4.9-34.3-14.5-44.6c-0.7-0.8-1.4-1.5-2.2-2.2c2.5,7.8,3.7,16.8,3.7,26.8v75.8
		h-16.5v7.3H216.3z"/>
	<path class="st0" d="M166.5,239.7c2.5-0.7,5.3-1,8.3-1c0.3,0,0.7,0,1.1,0c-1.7-5.9-4.9-9.9-9.6-12.2c0,0.5,0,1,0,1.5L166.5,239.7z"
		/>
	<path class="st0" d="M147.7,274.1l-0.7-45.9c0-0.7,0-1.5,0-2.2c-1.8,0.7-3.5,1.7-4.9,2.9l-0.3-20.9c0-5.5-0.3-10.5-0.8-15.2
		c-2.3-4.8-5.5-8.4-9.7-11.1c1.8,7.5,2.7,16.2,2.7,26.4l0.7,46v31.6h-17.2v7.7h15.4v6.5h14.8V274.1z"/>
	<path class="st0" d="M238.2,438.1v166.8h2.1c6.7,0,11.9-2,15.5-6c3.6-4,5.4-10.5,5.4-19.4v-136c0-1.9-0.1-3.7-0.3-5.3
		c-0.6,0-1.2-0.1-1.9-0.1H238.2z"/>
	<path class="st0" d="M232.4,438.1v-5.8h5.8h20.9c0.3,0,0.6,0,0.9,0c-0.9-3.4-2.3-6.2-4.2-8.3c-3.6-4-8.8-6-15.5-6h-20.9v186.8h13
		V438.1z"/>
	<path class="st0" d="M65.9,81.7v-5.8h5.8h18.7c0.2,0,0.5,0,0.7,0c-0.8-3.2-2.1-5.9-3.7-7.9c-3.4-4.2-8.7-6.4-15.9-6.4H52.9v74.7h13
		V81.7z"/>
	<path d="M170.5,438.5v5.9c1.5,0.2,3,0.3,4.3,0.3c1.2,0,2.3-0.1,3.4-0.2v-5.8c-1.1,0.1-2.2,0.2-3.4,0.2
		C173.3,438.8,171.9,438.7,170.5,438.5z"/>
	<path d="M174.8,470.4c-18.7,0-32.4-5-42.1-15.3c-0.8-0.9-1.6-1.8-2.4-2.8c-3.5-1.2-6.9-2.8-9.9-4.6c2.2,4.2,4.9,8,8.1,11.4
		c10.7,11.5,26.2,17.2,46.3,17.2c1.2,0,2.3,0,3.4-0.1v-5.8C177.1,470.4,176,470.4,174.8,470.4z"/>
	<path d="M153.5,356h-18.8v5.8h13V413c0,1.6,0.1,3.1,0.2,4.6c1.8,0.6,3.8,1,5.9,1.1c-0.2-1.8-0.3-3.7-0.3-5.7V356z"/>
	<polygon points="151.7,313.4 132.9,313.4 132.9,319.2 145.9,319.2 145.9,342.9 134.7,342.9 134.7,348.7 151.7,348.7 	"/>
	<rect x="114.3" y="328.7" width="5.8" height="7.3"/>
	<rect x="196.1" y="328.7" width="5.8" height="7.3"/>
	<path d="M160.9,249c3.4-2.9,8.1-4.4,14-4.4c0.8,0,1.5,0,2.2,0.1c-0.2-2.1-0.6-4.1-1.1-5.9c-0.4,0-0.7,0-1.1,0c-3,0-5.8,0.3-8.3,1
		l-0.2-11.6c0-0.5,0-1,0-1.5c-1.7-0.8-3.7-1.4-5.8-1.7c0,1.1,0.1,2.1,0.1,3.2L160.9,249z"/>
	<path d="M216.9,228.3c9.6,10.3,14.5,25.3,14.5,44.6v70h-15.1v5.8h20.9v-75.8c0-20.9-5.4-37.1-16.1-48.6c-3.2-3.4-6.8-6.3-10.8-8.6
		c1.7,3.2,3.2,6.7,4.3,10.4C215.5,226.8,216.2,227.6,216.9,228.3z"/>
	<rect x="198.2" y="373" width="5.8" height="7.7"/>
	<polygon points="229.3,361.9 229.3,380.7 235.1,380.7 235.1,356 216.3,356 216.3,361.9 	"/>
	<path d="M71.7,75.9h-5.8v5.8v54.7h1.9c1.4,0,2.6-0.1,3.9-0.2V81.7h18.7c0.6,0,1.2,0,1.8,0.1c-0.2-2.1-0.6-4.1-1-5.8
		c-0.2,0-0.5,0-0.7,0H71.7z"/>
	<path d="M153.5,274.1l-0.7-46c0-1.2,0-2.3-0.1-3.5c-2.1,0.2-4,0.7-5.8,1.4c0,0.7,0,1.4,0,2.2l0.7,45.9v25.8h-14.8v5.8h20.6V274.1z"
		/>
	<path d="M133.7,63.1c8.6,8.7,12.9,22.6,12.9,41.3v16.1c0,23.9-7.1,38.8-21.7,45.5c1.1,1.6,2,3.3,2.8,5.1
		c16.4-7.7,24.6-24.6,24.6-50.5v-16.1c0-20.4-4.9-35.6-14.6-45.4c-2.9-3-6.4-5.5-10.3-7.5c1.3,2.8,2.4,5.8,3.2,9
		C131.8,61.4,132.8,62.2,133.7,63.1z"/>
	<path d="M85.9,188H71.7h-5.8v5.8v106.3H36.4v-14.2h-5.8v20h41.1V193.8h14.2c2.2,0,4.3,0.1,6.2,0.4c-0.3-2.2-0.8-4.2-1.3-6
		C89.2,188.1,87.6,188,85.9,188z"/>
	<path d="M117.5,285.7h-5.8c0,2.6,0,5.3,0,7.7h5.8V285.7z"/>
	<path d="M141,192.8c-0.2-1.5-0.3-3-0.5-4.4c1.5-0.3,3-0.5,4.5-0.7c-3.7-6.3-9-10.9-15.9-13.7c0.9,2.4,1.7,5,2.3,7.7
		C135.5,184.4,138.7,188.1,141,192.8z"/>
	<path d="M238.2,432.3h-5.8v5.8v166.8h5.8V438.1h20.9c0.6,0,1.2,0,1.9,0.1c-0.2-2.1-0.5-4.1-1-5.8c-0.3,0-0.6,0-0.9,0H238.2z"/>
	<path d="M305.8,417.2c-3.1-3.4-6.8-6.2-10.9-8.6c1.5,3.1,2.8,6.3,3.9,9.9c1,0.8,1.9,1.7,2.8,2.7c9.1,9.8,13.8,24.7,13.8,44.2v132.3
		c0,19.6-4.6,34.4-13.8,44.2c-9,9.7-23.1,14.6-41.7,14.6h-57v-14.2h-5.8v20h62.8c20.4,0,35.7-5.5,46-16.4c10.2-11,15.3-27,15.3-48.2
		V465.4C321.1,444.2,316,428.1,305.8,417.2z"/>
	<path d="M156,456.2c5.1,0,10-0.4,14.5-1.1v-10.7v-5.9v-24.6c-3.5,3.3-8.3,4.9-14.5,4.9c-0.8,0-1.5,0-2.2-0.1
		c-2.2-0.1-4.1-0.5-5.9-1.1c-8.8-2.9-13.2-11.1-13.2-24.6v-31.2V356v-7.3v-5.8V336h-14.7h-5.8H93.6v54.4c0,20.9,5.4,37.1,16.1,48.6
		c3.2,3.4,6.8,6.3,10.8,8.7c3.1,1.8,6.4,3.4,9.9,4.6C137.8,454.9,146.4,456.2,156,456.2z"/>
	<polygon points="132.9,328.7 132.9,319.2 132.9,313.4 132.9,305.7 132.9,299.9 132.9,293.4 117.5,293.4 111.7,293.4 95.4,293.4 
		95.4,328.7 114.3,328.7 120.1,328.7 	"/>
	<path d="M141,192.8c0.5,4.7,0.8,9.8,0.8,15.2l0.3,20.9c1.4-1.2,3.1-2.2,4.9-2.9c1.7-0.7,3.7-1.1,5.8-1.4c1.1-0.1,2.1-0.2,3.3-0.2
		c1.6,0,3.1,0.1,4.5,0.3c2.2,0.3,4.1,0.9,5.8,1.7c4.7,2.2,7.9,6.3,9.6,12.2c0.5,1.8,0.9,3.8,1.1,5.9c0.2,1.8,0.3,3.7,0.3,5.7v78.4
		h18.8h5.8h16.5v-75.8c0-10-1.2-18.9-3.7-26.8c-1.2-3.7-2.6-7.2-4.3-10.4c-2.2-4.2-4.9-8-8.1-11.4c-10.7-11.5-26.2-17.2-46.3-17.2
		c-3.9,0-7.6,0.2-11.1,0.7c-1.5,0.2-3,0.4-4.5,0.7C140.6,189.9,140.8,191.4,141,192.8z"/>
	<polygon points="216.3,336 201.9,336 196.1,336 179.4,336 179.4,373 180.3,373 198.2,373 204,373 216.3,373 216.3,361.9 216.3,356 
		216.3,348.7 216.3,342.9 	"/>
	<path d="M134.7,285.7v-31.6l-0.7-46c0-10.1-0.9-18.9-2.7-26.4c-0.7-2.7-1.4-5.3-2.3-7.7c-0.4-1-0.8-2-1.2-2.9c0,0,0,0,0-0.1
		c-0.8-1.8-1.8-3.5-2.8-5.1c-3.7-5.6-8.8-9.6-15.4-12.2c-0.9-0.4-1.9-0.7-2.8-1v-0.7c2.3-0.9,4.4-2,6.4-3.2
		c13.7-8.5,20.5-24.6,20.5-48.4V84.5c0-9-0.9-17-2.8-23.9c-0.9-3.2-2-6.2-3.2-9c-2.2-4.8-5-9-8.5-12.5c-9.7-9.8-25.2-14.8-46.3-14.8
		H11.8v261.6h18.8h5.8h16.5V173.8h14.2c9.5,0,16.1,2.4,20,7.1c1.5,1.9,2.7,4.3,3.7,7.3c0.6,1.8,1,3.8,1.3,6
		c0.5,3.4,0.8,7.3,0.8,11.7v47.8c0,9.7,0,31.9,0,31.9h18.8h5.8H134.7z M52.9,61.7h18.7c7.2,0,12.5,2.1,15.9,6.4
		c1.6,2,2.8,4.7,3.7,7.9c0.5,1.8,0.8,3.7,1,5.8c0.2,2.1,0.3,4.4,0.3,6.8v20.2c0,10-2.1,17.1-6.2,21.3c-3.4,3.5-8.3,5.6-14.6,6.2
		c-1.2,0.1-2.5,0.2-3.9,0.2h-1.9h-13V61.7z"/>
	<path d="M241.1,642.3c20.4,0,35.7-5.5,46-16.4c10.2-11,15.3-27,15.3-48.2V445.3c0-10.1-1.2-19.1-3.5-26.9c-1.1-3.5-2.4-6.8-3.9-9.9
		c-2.2-4.3-4.8-8.1-7.9-11.4c-10.2-11-25.5-16.4-46-16.4h-5.9h-5.8H204h-5.8h-20v57.9v5.8v25.8v5.8v166.1h18.8h5.8H241.1z
		 M219.4,418.1h20.9c6.7,0,11.9,2,15.5,6c1.9,2.1,3.3,4.8,4.2,8.3c0.5,1.8,0.8,3.7,1,5.8c0.2,1.7,0.3,3.4,0.3,5.3v136
		c0,9-1.8,15.4-5.4,19.4c-3.6,4-8.8,6-15.5,6h-2.1h-5.8h-13V418.1z"/>
</g>
</svg>
