<?xml version="1.0" encoding="utf-8"?>
<!-- Generator: Adobe Illustrator 24.1.2, SVG Export Plug-In . SVG Version: 6.00 Build 0)  -->
<svg version="1.1" id="Layer_1" xmlns="http://www.w3.org/2000/svg" xmlns:xlink="http://www.w3.org/1999/xlink" x="0px" y="0px"
	 viewBox="0 0 355.7 733.6" style="enable-background:new 0 0 355.7 733.6;" xml:space="preserve">
<style type="text/css">
	.st0{fill:#E83737;}
	.st1{fill:#FFF000;}
</style>
<g>
	<g>
		<g>
			<path class="st0" d="M200.7,498.6v-41.1c-3.5,3.3-8.3,4.9-14.5,4.9c-14.2,0-21.3-8.6-21.3-25.8v-57h-41.1v54.4
				c0,20.9,5.4,37.1,16.1,48.6c10.7,11.5,26.2,17.2,46.3,17.2C191.4,499.7,196.2,499.3,200.7,498.6z"/>
		</g>
		<g>
			<rect x="125.6" y="336.9" class="st0" width="37.4" height="35.3"/>
		</g>
		<g>
			<path class="st0" d="M170.6,232c0.8,5.9,1.3,12.4,1.3,19.6l0.3,20.9c3.4-2.9,8.1-4.4,14-4.4c14.2,0,21.3,8.6,21.3,25.8v78.4h41.1
				v-75.8c0-20.9-5.4-37.1-16.1-48.6c-10.7-11.5-26.2-17.2-46.3-17.2C180.7,230.6,175.5,231.1,170.6,232z"/>
		</g>
		<g>
			<polygon class="st0" points="209.6,379.5 209.6,416.5 210.5,416.5 246.5,416.5 246.5,379.5 			"/>
		</g>
		<g>
			<path class="st0" d="M117.3,224.4c3.9,4.7,5.8,13.1,5.8,25v47.8c0,9.7,0,31.9,0,31.9h41.9v-31.6l-0.7-46c0-15.4-2.1-27.8-6.2-37
				c-4.1-9.2-11.2-15.3-21.1-18.3v-0.7c17.9-7.2,26.9-24.4,26.9-51.6V128c0-20.4-4.9-35.6-14.6-45.4c-9.7-9.8-25.2-14.8-46.3-14.8
				H42v261.6h41.1V217.3h14.2C106.8,217.3,113.4,219.6,117.3,224.4z M83.1,105.2h18.7c7.2,0,12.5,2.1,15.9,6.4
				c3.4,4.2,5,11.1,5,20.6v20.2c0,10-2.1,17.1-6.2,21.3c-4.1,4.2-10.3,6.4-18.5,6.4H83.1V105.2z"/>
		</g>
		<g>
			<path class="st0" d="M271.3,424.2h-62.8v261.6h62.8c20.4,0,35.7-5.5,46-16.4c10.2-11,15.3-27,15.3-48.2V488.9
				c0-21.2-5.1-37.2-15.3-48.2C307,429.7,291.7,424.2,271.3,424.2z M291.4,623c0,9-1.8,15.4-5.4,19.4c-3.6,4-8.8,6-15.5,6h-20.9
				V461.6h20.9c6.7,0,11.9,2,15.5,6c3.6,4,5.4,10.5,5.4,19.4V623z"/>
		</g>
	</g>
	<g>
		<path class="st1" d="M181.9,478.6v-41.1c-3.5,3.3-8.3,4.9-14.5,4.9c-14.2,0-21.3-8.6-21.3-25.8v-57H105v54.4
			c0,20.9,5.4,37.1,16.1,48.6c10.7,11.5,26.2,17.2,46.3,17.2C172.6,479.7,177.4,479.3,181.9,478.6z"/>
		<rect x="106.8" y="316.9" class="st1" width="37.4" height="35.3"/>
		<path class="st1" d="M151.8,212c0.8,5.9,1.3,12.4,1.3,19.6l0.3,20.9c3.4-2.9,8.1-4.4,14-4.4c14.2,0,21.3,8.6,21.3,25.8v78.4h41.1
			v-75.8c0-20.9-5.4-37.1-16.1-48.6c-10.7-11.5-26.2-17.2-46.3-17.2C161.8,210.6,156.7,211.1,151.8,212z"/>
		<polygon class="st1" points="190.8,359.5 190.8,396.4 191.7,396.4 227.7,396.4 227.7,359.5 		"/>
		<path class="st1" d="M98.5,204.4c3.9,4.7,5.8,13.1,5.8,25v47.8c0,9.7,0,31.9,0,31.9h41.9v-31.6l-0.7-46c0-15.4-2.1-27.8-6.2-37
			c-4.1-9.2-11.2-15.3-21.1-18.3v-0.7C136,168.4,145,151.2,145,124v-16.1c0-20.4-4.9-35.6-14.6-45.4c-9.7-9.8-25.2-14.8-46.3-14.8
			H23.2v261.6h41.1V197.3h14.2C87.9,197.3,94.6,199.6,98.5,204.4z M64.3,85.2H83c7.2,0,12.5,2.1,15.9,6.4c3.4,4.2,5,11.1,5,20.6
			v20.2c0,10-2.1,17.1-6.2,21.3c-4.1,4.2-10.3,6.4-18.5,6.4H64.3V85.2z"/>
		<path class="st1" d="M252.4,404.2h-62.8v261.6h62.8c20.4,0,35.7-5.5,46-16.4c10.2-11,15.3-27,15.3-48.2V468.8
			c0-21.2-5.1-37.2-15.3-48.2C288.2,409.7,272.9,404.2,252.4,404.2z M272.6,603c0,9-1.8,15.4-5.4,19.4c-3.6,4-8.8,6-15.5,6h-20.9
			V441.6h20.9c6.7,0,11.9,2,15.5,6c3.6,4,5.4,10.5,5.4,19.4V603z"/>
	</g>
</g>
</svg>
