<?xml version="1.0" encoding="utf-8"?>
<!-- Generator: Adobe Illustrator 24.1.2, SVG Export Plug-In . SVG Version: 6.00 Build 0)  -->
<svg version="1.1" id="Layer_1" xmlns="http://www.w3.org/2000/svg" xmlns:xlink="http://www.w3.org/1999/xlink" x="0px" y="0px"
	 viewBox="0 0 358.2 82.6" style="enable-background:new 0 0 358.2 82.6;" xml:space="preserve">
<style type="text/css">
	.st0{fill:#FFFFFF;}
</style>
<g>
	<g>
		<path class="st0" d="M10.9,38.2v16.5H3.2V12.4h15.5c4.9,0,7.3,2.2,7.3,6.6v12.5c0,3.7-1.6,5.8-4.9,6.4l7,16.7h-8.3l-6.4-16.5H10.9
			z M10.9,18.3v14.2h5.6c0.7,0,1.2-0.1,1.5-0.4c0.3-0.2,0.4-0.7,0.4-1.4V20.1c0-0.7-0.1-1.2-0.4-1.4c-0.3-0.2-0.8-0.4-1.5-0.4H10.9z
			"/>
		<path class="st0" d="M31.1,54.6v-9h8.2v9H31.1z"/>
		<path class="st0" d="M51.8,12.4H60c4.9,0,7.3,2.2,7.3,6.6v29c0,4.4-2.4,6.6-7.3,6.6h-8.2c-4.9,0-7.3-2.2-7.3-6.6V19
			C44.5,14.6,46.9,12.4,51.8,12.4z M59.6,46.9V20.1c0-0.7-0.1-1.2-0.4-1.4c-0.3-0.2-0.8-0.4-1.5-0.4h-3.6c-0.8,0-1.3,0.1-1.5,0.4
			c-0.3,0.2-0.4,0.7-0.4,1.4v26.9c0,0.7,0.1,1.2,0.4,1.4c0.3,0.2,0.8,0.4,1.5,0.4h3.6c0.7,0,1.2-0.1,1.5-0.4
			C59.4,48.1,59.6,47.6,59.6,46.9z"/>
		<path class="st0" d="M72.6,54.6v-9h8.2v9H72.6z"/>
		<path class="st0" d="M86.6,12.4h16.1c4.9,0,7.3,2.2,7.3,6.6v29c0,4.4-2.4,6.6-7.3,6.6H86.6V12.4z M102.2,47.2V19.8
			c0-0.7-0.1-1.2-0.4-1.4c-0.3-0.2-0.8-0.4-1.5-0.4h-6v31h6c0.7,0,1.2-0.1,1.5-0.4C102,48.4,102.2,47.9,102.2,47.2z"/>
		<path class="st0" d="M126.9,12.4h15.5c4.9,0,7.3,2.2,7.3,6.6v13.5c0,4.4-2.4,6.6-7.3,6.6h-7.8v15.5h-7.7V12.4z M142,31.4V20.1
			c0-0.7-0.1-1.2-0.4-1.4c-0.3-0.2-0.8-0.4-1.5-0.4h-5.6v14.9h5.6c0.7,0,1.2-0.1,1.5-0.4C141.9,32.6,142,32.1,142,31.4z"/>
		<path class="st0" d="M167.8,21.6h1.2v6.6h-2.8c-2.8,0-4.2,1.6-4.2,4.8v21.6h-7.6V21.7h7.5V26c0.4-1.3,1-2.3,2.1-3.1
			C165,22,166.2,21.6,167.8,21.6z"/>
		<path class="st0" d="M179,21.7h7.6c4.7,0,7.1,2.2,7.1,6.6V48c0,4.4-2.4,6.6-7.1,6.6H179c-4.8,0-7.2-2.2-7.2-6.6V28.4
			C171.9,24,174.2,21.7,179,21.7z M186.3,47.1V29.2c0-0.7-0.1-1.2-0.4-1.4c-0.3-0.2-0.8-0.4-1.5-0.4h-3.1c-0.8,0-1.3,0.1-1.5,0.4
			c-0.3,0.2-0.4,0.7-0.4,1.4v17.9c0,0.7,0.1,1.2,0.4,1.4c0.3,0.2,0.8,0.4,1.5,0.4h3.1c0.8,0,1.3-0.1,1.5-0.4
			C186.1,48.3,186.3,47.8,186.3,47.1z"/>
		<path class="st0" d="M212.2,9.8h7.6v44.8h-7.5v-3.3c-0.5,2.2-2.1,3.3-4.8,3.3h-2.1c-4.6,0-6.8-2.2-6.8-6.6V28.3
			c0-4.4,2.3-6.6,6.8-6.6h2.1c2.4,0,4,0.9,4.6,2.8V9.8z M208.1,48.7h2c1.4,0,2.1-0.7,2.1-2.2V29.8c0-0.8-0.2-1.4-0.5-1.8
			s-0.8-0.5-1.6-0.5h-2c-0.7,0-1.2,0.1-1.5,0.4c-0.3,0.2-0.4,0.7-0.4,1.4v17.6c0,0.7,0.1,1.2,0.4,1.4
			C206.9,48.6,207.4,48.7,208.1,48.7z"/>
		<path class="st0" d="M238.9,21.7h7.6v32.9h-7.5v-3.3c-0.5,2.2-2.1,3.3-4.8,3.3h-2.1c-4.6,0-6.8-2.2-6.8-6.6V21.7h7.6v25.2
			c0,0.7,0.1,1.2,0.4,1.4c0.3,0.2,0.8,0.4,1.5,0.4h2c1.4,0,2.1-0.7,2.1-2.2V21.7z"/>
		<path class="st0" d="M273,32.8h-7.4v-3.4c0-0.7-0.1-1.2-0.4-1.4c-0.3-0.2-0.8-0.4-1.5-0.4h-2.4c-0.7,0-1.2,0.1-1.5,0.4
			c-0.3,0.2-0.4,0.7-0.4,1.4v17.5c0,0.7,0.1,1.2,0.4,1.4c0.3,0.2,0.8,0.4,1.5,0.4h2.4c0.7,0,1.2-0.1,1.5-0.4
			c0.3-0.2,0.4-0.7,0.4-1.4v-3.4h7.4V48c0,4.4-2.4,6.6-7.3,6.6h-6.6c-4.9,0-7.3-2.2-7.3-6.6V28.4c0-4.4,2.4-6.6,7.3-6.6h6.6
			c4.9,0,7.3,2.2,7.3,6.6V32.8z"/>
		<path class="st0" d="M290.5,27.6H286v19.1c0,0.7,0.1,1.2,0.4,1.4c0.3,0.2,0.8,0.4,1.5,0.4h2.5v6.1h-4.7c-4.9,0-7.3-2.2-7.3-6.6
			V27.6h-3.3v-5.9h3.3v-5.9h7.6v5.9h4.5V27.6z"/>
		<path class="st0" d="M293.9,16.4V9.7h8v6.6H293.9z M301.6,54.6h-7.6V21.7h7.6V54.6z"/>
		<path class="st0" d="M314.2,21.7h7.6c4.7,0,7.1,2.2,7.1,6.6V48c0,4.4-2.4,6.6-7.1,6.6h-7.6c-4.8,0-7.2-2.2-7.2-6.6V28.4
			C307.1,24,309.4,21.7,314.2,21.7z M321.5,47.1V29.2c0-0.7-0.1-1.2-0.4-1.4c-0.3-0.2-0.8-0.4-1.5-0.4h-3.1c-0.8,0-1.3,0.1-1.5,0.4
			c-0.3,0.2-0.4,0.7-0.4,1.4v17.9c0,0.7,0.1,1.2,0.4,1.4c0.3,0.2,0.8,0.4,1.5,0.4h3.1c0.8,0,1.3-0.1,1.5-0.4
			C321.3,48.3,321.5,47.8,321.5,47.1z"/>
		<path class="st0" d="M346.6,21.7h2c4.6,0,6.9,2.2,6.9,6.6v26.3h-7.6V29.4c0-0.7-0.1-1.2-0.4-1.4c-0.3-0.2-0.8-0.4-1.5-0.4h-2
			c-1.4,0-2.1,0.7-2.1,2.2v24.8h-7.6V21.7h7.5v3C342.5,22.7,344,21.7,346.6,21.7z"/>
	</g>
</g>
</svg>
