<?xml version="1.0" encoding="utf-8"?>
<!-- Generator: Adobe Illustrator 26.3.1, SVG Export Plug-In . SVG Version: 6.00 Build 0)  -->
<svg version="1.1" id="Layer_1" xmlns="http://www.w3.org/2000/svg" xmlns:xlink="http://www.w3.org/1999/xlink" x="0px" y="0px"
	 viewBox="0 0 203.5 42.28" style="enable-background:new 0 0 203.5 42.28;" xml:space="preserve">
<style type="text/css">
	.st0{fill:#FFFFFF;}
</style>
<g>
	<g>
		<path class="st0" d="M7.71,25.79v16.48H0V0h15.54c4.87,0,7.3,2.21,7.3,6.63v12.53c0,3.66-1.63,5.81-4.89,6.43l7.04,16.68h-8.31
			l-6.43-16.48H7.71z M7.71,5.9v14.2h5.56c0.71,0,1.21-0.12,1.47-0.37c0.27-0.25,0.4-0.73,0.4-1.44V7.71c0-0.71-0.13-1.19-0.4-1.44
			c-0.27-0.24-0.76-0.37-1.47-0.37H7.71z"/>
		<path class="st0" d="M27.87,42.28v-9.04h8.17v9.04H27.87z"/>
		<path class="st0" d="M48.57,0h8.17c4.87,0,7.3,2.21,7.3,6.63v29.01c0,4.42-2.43,6.63-7.3,6.63h-8.17c-4.87,0-7.3-2.21-7.3-6.63
			V6.63C41.27,2.21,43.71,0,48.57,0z M56.35,34.57V7.71c0-0.71-0.13-1.19-0.4-1.44c-0.27-0.24-0.76-0.37-1.47-0.37h-3.55
			c-0.76,0-1.27,0.12-1.54,0.37c-0.27,0.25-0.4,0.73-0.4,1.44v26.87c0,0.71,0.13,1.2,0.4,1.44c0.27,0.25,0.78,0.37,1.54,0.37h3.55
			c0.71,0,1.21-0.12,1.47-0.37C56.21,35.77,56.35,35.29,56.35,34.57z"/>
		<path class="st0" d="M69.34,42.28v-9.04h8.17v9.04H69.34z"/>
		<path class="st0" d="M83.34,0h16.08c4.87,0,7.3,2.21,7.3,6.63v29.01c0,4.42-2.43,6.63-7.3,6.63H83.34V0z M98.96,34.84V7.44
			c0-0.71-0.13-1.19-0.4-1.44c-0.27-0.25-0.76-0.37-1.47-0.37h-6.03v31.02h6.03c0.71,0,1.21-0.12,1.47-0.37
			C98.82,36.04,98.96,35.55,98.96,34.84z"/>
		<path class="st0" d="M121.62,27.13h5.57c1.74,0,2.62,0.79,2.62,2.38v4.82c0,1.58-0.87,2.38-2.62,2.38h-2.81v5.57h-2.76V27.13z
			 M127.04,33.95v-4.06c0-0.26-0.05-0.43-0.14-0.52s-0.27-0.13-0.53-0.13h-1.99v5.35h1.99c0.26,0,0.43-0.04,0.53-0.13
			S127.04,34.21,127.04,33.95z"/>
		<path class="st0" d="M136.25,30.45h0.43v2.35h-1.01c-1.01,0-1.51,0.58-1.51,1.73v7.75h-2.71V30.49h2.69V32
			c0.13-0.46,0.38-0.84,0.74-1.13C135.25,30.59,135.71,30.45,136.25,30.45z"/>
		<path class="st0" d="M140.29,30.49H143c1.7,0,2.54,0.79,2.54,2.38v7.03c0,1.58-0.85,2.38-2.54,2.38h-2.71
			c-1.71,0-2.57-0.79-2.57-2.38v-7.03C137.72,31.29,138.57,30.49,140.29,30.49z M142.88,39.59v-6.41c0-0.25-0.05-0.43-0.14-0.52
			s-0.28-0.13-0.55-0.13h-1.1c-0.27,0-0.46,0.04-0.55,0.13c-0.1,0.09-0.14,0.26-0.14,0.52v6.41c0,0.26,0.05,0.43,0.14,0.52
			c0.1,0.09,0.28,0.13,0.55,0.13h1.1c0.27,0,0.46-0.04,0.55-0.13S142.88,39.85,142.88,39.59z"/>
		<path class="st0" d="M152.17,26.22h2.74v16.06h-2.69V41.1c-0.19,0.78-0.76,1.18-1.7,1.18h-0.74c-1.63,0-2.45-0.79-2.45-2.38v-7.06
			c0-1.58,0.81-2.38,2.45-2.38h0.74c0.86,0,1.42,0.34,1.66,1.01V26.22z M150.7,40.17h0.72c0.5,0,0.74-0.26,0.74-0.79V33.4
			c0-0.3-0.06-0.52-0.17-0.64c-0.11-0.12-0.3-0.18-0.58-0.18h-0.72c-0.26,0-0.43,0.04-0.53,0.13s-0.14,0.26-0.14,0.52v6.29
			c0,0.26,0.05,0.43,0.14,0.52S150.45,40.17,150.7,40.17z"/>
		<path class="st0" d="M161.74,30.49h2.74v11.79h-2.69V41.1c-0.19,0.78-0.76,1.18-1.7,1.18h-0.74c-1.63,0-2.45-0.79-2.45-2.38v-9.41
			h2.71v9.03c0,0.26,0.05,0.43,0.14,0.52s0.27,0.13,0.53,0.13H161c0.5,0,0.74-0.26,0.74-0.79V30.49z"/>
		<path class="st0" d="M173.93,34.45h-2.66v-1.2c0-0.26-0.05-0.43-0.14-0.52c-0.1-0.09-0.27-0.13-0.53-0.13h-0.87
			c-0.26,0-0.43,0.04-0.53,0.13c-0.1,0.09-0.14,0.26-0.14,0.52v6.26c0,0.26,0.05,0.43,0.14,0.52s0.27,0.13,0.53,0.13h0.87
			c0.26,0,0.43-0.04,0.53-0.13s0.14-0.26,0.14-0.52v-1.22h2.66v1.61c0,1.58-0.87,2.38-2.62,2.38h-2.35c-1.74,0-2.62-0.79-2.62-2.38
			v-7.03c0-1.58,0.87-2.38,2.62-2.38h2.35c1.74,0,2.62,0.79,2.62,2.38V34.45z"/>
		<path class="st0" d="M180.22,32.61h-1.61v6.84c0,0.26,0.05,0.43,0.14,0.52c0.1,0.09,0.28,0.13,0.55,0.13h0.89v2.18h-1.68
			c-1.74,0-2.62-0.79-2.62-2.38v-7.29h-1.18v-2.11h1.18v-2.11h2.71v2.11h1.61V32.61z"/>
		<path class="st0" d="M181.42,28.57V26.2h2.86v2.38H181.42z M184.21,42.28h-2.71V30.49h2.71V42.28z"/>
		<path class="st0" d="M188.72,30.49h2.71c1.7,0,2.54,0.79,2.54,2.38v7.03c0,1.58-0.85,2.38-2.54,2.38h-2.71
			c-1.71,0-2.57-0.79-2.57-2.38v-7.03C186.15,31.29,187,30.49,188.72,30.49z M191.31,39.59v-6.41c0-0.25-0.05-0.43-0.14-0.52
			c-0.1-0.09-0.28-0.13-0.55-0.13h-1.1c-0.27,0-0.46,0.04-0.55,0.13s-0.14,0.26-0.14,0.52v6.41c0,0.26,0.05,0.43,0.14,0.52
			s0.28,0.13,0.55,0.13h1.1c0.27,0,0.46-0.04,0.55-0.13C191.26,40.02,191.31,39.85,191.31,39.59z"/>
		<path class="st0" d="M200.31,30.49h0.72c1.65,0,2.47,0.79,2.47,2.38v9.41h-2.74v-9.02c0-0.26-0.05-0.43-0.14-0.52
			c-0.1-0.09-0.27-0.13-0.53-0.13h-0.72c-0.5,0-0.74,0.26-0.74,0.79v8.88h-2.71V30.49h2.69v1.08
			C198.83,30.85,199.4,30.49,200.31,30.49z"/>
	</g>
</g>
</svg>
